{"title":"X-Factor.Romania.S03E07.720p.WEB-DL-playTV.mp4","uid":9138834,"size":2905955020,"categoryP":"video","categoryS":"hd___tv_shows","magnet":"?xt=urn:btih:d279b7bff199f9c8dcc958c0c230b8fa822667b1&amp;dn=X-Factor.Romania.S03E07.720p.WEB-DL-playTV.mp4&amp;tr=udp%3A%2F%2Ftracker.openbittorrent.com%3A80&amp;tr=udp%3A%2F%2Fopen.demonii.com%3A1337&amp;tr=udp%3A%2F%2Ftracker.coppersurfer.tk%3A6969&amp;tr=udp%3A%2F%2Fexodus.desync.com%3A6969","seeders":1,"leechers":0,"uploader":"ToXiCx313","files":1,"time":1383469688,"description":"[pre]General\nComplete name                            : C:UsersToXiCDownloadsX-Factor.Romania.S03E07.720p.WEB-DL-playTV.mp4\nFormat                                   : MPEG-4\nFormat profile                           : Base Media / Version 2\nCodec ID                                 : mp42\nFile size                                : 2.71 GiB\nDuration                                 : 2h 5mn\nOverall bit rate mode                    : Variable\nOverall bit rate                         : 3 092 Kbps\nEncoded date                             : UTC 2013-11-02 14:11:51\nTagged date                              : UTC 2013-11-02 14:16:48\nÂ©TIM                                     : 00:00:00:00\nÂ©TSC                                     : 25\nÂ©TSZ                                     : 1\n\nVideo\nID                                       : 1\nFormat                                   : AVC\nFormat/Info                              : Advanced Video Codec\nFormat profile                           : &lt;a class=&quot;__cf_email__&quot; href=&quot;/cdn-cgi/l/email-protection&quot; data-cfemail=&quot;084569616648443b2639&quot;&gt;[email&amp;#160;protected]&lt;/a&gt;&lt;script cf-hash='f9e31' type=&quot;text/javascript&quot;&gt;\n/* &lt;![CDATA[ */!function(){try{var t=&quot;currentScript&quot;in document?document.currentScript:function(){for(var t=document.getElementsByTagName(&quot;script&quot;),e=t.length;e--;)if(t[e].getAttribute(&quot;cf-hash&quot;))return t[e]}();if(t&amp;&amp;t.previousSibling){var e,r,n,i,c=t.previousSibling,a=c.getAttribute(&quot;data-cfemail&quot;);if(a){for(e=&quot;&quot;,r=parseInt(a.substr(0,2),16),n=2;a.length-n;n+=2)i=parseInt(a.substr(n,2),16)^r,e+=String.fromCharCode(i);e=document.createTextNode(e),c.parentNode.replaceChild(e,c)}}}catch(u){}}();/* ]]&gt; */&lt;/script&gt;\nFormat settings, CABAC                   : Yes\nFormat settings, ReFrames                : 3 frames\nCodec ID                                 : avc1\nCodec ID/Info                            : Advanced Video Coding\nDuration                                 : 2h 5mn\nBit rate                                 : 2 995 Kbps\nWidth                                    : 1 280 pixels\nHeight                                   : 720 pixels\nDisplay aspect ratio                     : 16:9\nFrame rate mode                          : Variable\nFrame rate                               : 25.000 fps\nMinimum frame rate                       : 25.000 fps\nMaximum frame rate                       : 25.025 fps\nStandard                                 : PAL\nColor space                              : YUV\nChroma subsampling                       : 4:2:0\nBit depth                                : 8 bits\nScan type                                : Progressive\nBits/(Pixel*Frame)                       : 0.130\nStream size                              : 2.62 GiB (97%)\nLanguage                                 : English\nEncoded date                             : UTC 2013-11-02 14:11:51\nTagged date                              : UTC 2013-11-02 14:11:51\nmdhd_Duration                            : 7518520\n\nAudio\nID                                       : 2\nFormat                                   : AAC\nFormat/Info                              : Advanced Audio Codec\nFormat profile                           : LC\nCodec ID                                 : 40\nDuration                                 : 2h 5mn\nSource duration                          : 2h 5mn\nBit rate mode                            : Variable\nBit rate                                 : 93.4 Kbps\nMaximum bit rate                         : 158 Kbps\nChannel count                            : 2 channels\nChannel positions                        : Front: L R\nSampling rate                            : 48.0 KHz\nCompression mode                         : Lossy\nStream size                              : 83.7 MiB (3%)\nSource stream size                       : 83.7 MiB (3%)\nLanguage                                 : English\nEncoded date                             : UTC 2013-11-02 14:11:51\nTagged date                              : UTC 2013-11-02 14:11:51\nmdhd_Duration                            : 7518571","torrent":{"xt":"urn:btih:d279b7bff199f9c8dcc958c0c230b8fa822667b1","amp;dn":"X-Factor.Romania.S03E07.720p.WEB-DL-playTV.mp4","amp;tr":["udp%3A%2F%2Ftracker.openbittorrent.com%3A80","udp%3A%2F%2Fopen.demonii.com%3A1337","udp%3A%2F%2Ftracker.coppersurfer.tk%3A6969","udp%3A%2F%2Fexodus.desync.com%3A6969"],"infoHash":"d279b7bff199f9c8dcc958c0c230b8fa822667b1","infoHashBuffer":{"type":"Buffer","data":[210,121,183,191,241,153,249,200,220,201,88,192,194,48,184,250,130,38,103,177]},"announce":[],"urlList":[]}}